# xmcd
# 
# Track frame offsets:
#     150
#     38336
#     132797
#     175054
#     208184
#     248252
#     280670
# 
# Disc length: 3943
# 
# Revision: 1
# Processed by: cddbd v1.5.2PL0 Copyright (c) Steve Scherf et al.
# Submitted via: fre:ac v1.0.31
# 
DISCID=500f6507
DTITLE=John Coltrane Quintet featuring Eric Dolphy - The 1961 Helsinki Concert
DYEAR=1961
DGENRE=Jazz
TTITLE0=Impressions
TTITLE1=My Favorite Things
TTITLE2=Blue Train
TTITLE3=I Want to Talk About You
TTITLE4=On Green Dolphin Street
TTITLE5=Walkin'
TTITLE6=The Theme
EXTD=YEAR: 2007
EXTT0=
EXTT1=
EXTT2=
EXTT3=
EXTT4=
EXTT5=
EXTT6=
PLAYORDER=
